<svg width="122" height="451" viewBox="0 0 122 451" fill="none" xmlns="http://www.w3.org/2000/svg">
<path d="M50.9739 103.183C52.4668 105.846 54.4864 107.807 54.5159 109.827C54.633 119.546 59.3756 125.723 68.5676 127.655C74.0126 128.797 75.7396 131.373 75.9153 136.496C76.4422 152.538 77.3796 168.581 77.9651 184.623C78.9604 212.609 83.6149 239.804 95.2073 265.507C96.993 269.488 99.0127 273.382 101.208 277.158C112.45 296.538 113.27 316.62 106.683 337.756C102.643 350.724 99.101 363.956 96.8176 377.334C94.0659 393.405 96.7296 409.301 101.472 424.875C107.707 445.396 103.638 450.695 82.3557 450.373C69.241 450.197 67.0752 448.412 66.8118 435.121C66.4312 415.625 66.6359 396.128 66.5188 376.603C66.4895 371.802 66.0499 367 65.8157 362.199C64.9961 362.17 64.2349 362.141 63.4739 362.141C63.2397 377.978 63.1522 393.845 62.7131 409.683C62.3911 420.836 61.7466 431.989 60.8977 443.113C60.722 445.25 59.405 447.973 57.7366 449.232C53.8724 452.159 33.0288 450.169 29.5159 447.036C24.3637 442.469 24.8615 436.497 26.0325 430.731C27.4083 424.085 29.8089 417.645 31.2141 411C36.1029 387.786 31.9457 365.127 23.3391 343.874C13.2688 319.02 16.2546 297.006 29.3987 274.26C45.0017 247.24 52.2909 217.527 51.9397 186.116C51.6177 158.921 51.3252 131.725 50.9739 103.183ZM108.234 347.035C116.138 362.785 119.71 376.837 121.613 391.298C122.637 399.026 119.3 405.73 114.529 411.409C112.948 413.283 109.2 414.805 107.033 414.249C104.955 413.693 102.262 410.238 102.233 408.043C102.057 394.928 102.146 381.784 103.082 368.728C103.551 362.229 106.038 355.905 108.234 347.035ZM20.1184 348.792C28.1687 369.635 29.6033 388.283 27.8176 407.252C27.5834 409.77 25.4754 413.751 23.6604 414.073C20.8794 414.6 16.1077 413.517 14.8489 411.468C11.6873 406.316 8.55461 400.373 8.02759 394.489C6.62243 379.179 11.8631 365.127 20.1184 348.792ZM90.5481 118.705C90.7053 118.873 90.8384 118.983 90.9299 119.12C92.6101 121.621 93.7229 124.355 94.2063 127.329C94.3948 128.489 94.4178 129.666 94.1213 130.823C93.799 132.082 93.0689 133.017 91.8967 133.592C90.84 134.11 89.7451 134.517 88.5725 134.694C87.1499 134.909 85.871 134.589 84.7971 133.626C84.3348 133.211 83.9142 132.735 83.5403 132.238C82.3968 130.719 81.2839 129.176 80.1624 127.641C80.0584 127.498 79.9768 127.338 79.8323 127.102C84.2831 125.36 87.923 122.728 90.5481 118.705ZM62.2883 29.3653C64.3822 29.3958 66.4449 29.6392 68.4465 30.293C70.8182 31.0674 72.475 32.6168 73.4778 34.8907C74.1145 36.3347 74.4744 37.854 74.6965 39.4044C75.3059 43.6642 77.1257 47.2865 80.2952 50.2198C81.7485 51.5652 83.2102 52.9056 84.6096 54.3057C85.3237 55.0206 85.9245 55.8519 86.551 56.6505C87.6563 58.06 88.0826 59.7084 88.1663 61.463C88.1944 62.0338 88.1712 62.6077 88.1711 63.1817C88.1735 66.1659 87.7085 69.098 87.1594 72.0196C86.1613 77.3238 84.7235 82.5233 83.4133 87.754C82.9956 89.4232 82.5805 91.0952 82.5657 92.8301C82.5454 95.1813 83.0172 97.4553 83.8792 99.6212C84.9578 102.331 86.1525 104.994 87.3235 107.666C87.9484 109.093 88.1599 110.55 87.8948 112.091C87.5874 113.88 86.8391 115.468 85.7542 116.899C83.4803 119.903 80.4213 121.775 76.8616 122.82C72.1651 124.2 67.6834 123.641 63.4954 121.054C62.4012 120.377 61.4424 119.536 60.6594 118.508C59.9335 117.554 59.4885 116.507 59.4055 115.284C59.2553 113.049 59.0755 110.814 58.8323 108.588C58.5882 106.357 58.1508 104.162 57.2913 102.07C56.7704 100.802 56.0386 99.6838 55.0891 98.6866C50.1588 93.5083 45.471 88.1235 41.344 82.2725C39.7953 80.077 38.3207 77.8293 37.2053 75.378C36.7227 74.3173 36.3327 73.2011 36.0276 72.0762C35.6421 70.655 35.9272 69.2136 36.2463 67.8214C36.5827 66.3532 37.0458 64.9114 37.5159 63.4776C38.1158 61.6464 38.792 59.8395 39.1292 57.9317C39.6391 55.0407 39.2853 52.2302 38.4006 49.4542C37.9509 48.043 37.4846 46.6222 37.2092 45.1719C36.6367 42.1527 37.3975 39.4943 39.6487 37.3174C40.9886 36.0222 42.4937 34.9533 44.094 34.0147C45.3119 33.3005 46.5669 33.2781 47.8215 33.9493C48.4643 34.2934 49.1063 34.6392 49.7483 34.9864C52.7784 36.6243 56.1193 35.5376 57.8333 33.0137C58.2721 32.3669 58.6939 31.7077 59.1272 31.0577C59.8789 29.9313 60.9281 29.3458 62.2883 29.3653ZM26.469 46.3389C28.6004 45.1331 30.9032 45.9152 31.8215 48.1866C32.1086 48.8968 32.2314 49.6924 32.3167 50.462C32.4481 51.6541 31.9337 52.6061 30.9543 53.2686C30.266 53.7348 29.5367 54.1455 28.8069 54.546C27.3926 55.3227 26.9923 56.1137 27.4084 57.6915C27.6259 58.5159 27.9169 59.3493 28.3362 60.087C29.5507 62.2239 29.3972 64.3179 28.3381 66.4337C27.7616 67.5843 27.0148 68.6194 26.1575 69.5714C23.8187 72.1675 21.1311 74.3477 18.1165 76.1046C15.586 77.5798 12.8196 78.4064 9.91919 78.7647C8.627 78.9251 7.32614 79.0066 5.93774 79.1309C4.95527 79.0152 3.8779 78.9761 2.84302 78.7462C0.957111 78.3277 0.0372026 77.0831 0.0012207 75.1612C-0.0190407 74.0741 0.221549 73.0402 0.561768 72.0235C1.06082 70.5342 1.75159 69.132 2.55884 67.7881C4.96803 63.7779 7.90251 60.2091 11.5295 57.2344C12.8303 56.1676 14.2415 55.3238 15.9231 54.9483C17.3546 54.6284 18.5433 53.7937 19.6008 52.8057C20.5144 51.9524 21.3717 51.0382 22.2493 50.1465C23.0901 49.2924 23.8985 48.4033 24.7737 47.586C25.2837 47.1097 25.8613 46.6823 26.469 46.3389ZM83.2288 32.7354C84.2588 32.7346 85.3062 32.8997 86.3167 33.1202C88.0961 33.5081 89.8493 34.0206 91.6233 34.4376C93.5859 34.8991 95.534 34.9138 97.4739 34.2247C98.6495 33.807 99.8911 33.8931 101.115 34.0167C104.377 34.3476 107.504 35.2293 110.561 36.3839C113.005 37.3069 115.366 38.4064 117.513 39.9083C118.278 40.4433 118.978 41.0753 119.689 41.6846C119.944 41.9029 120.157 42.1753 120.366 42.4405C122.064 44.586 121.873 46.5564 119.748 48.296C118.311 49.4723 116.696 50.3839 115.025 51.1856C111.835 52.7124 108.492 53.6127 104.496 53.587C101.692 53.479 98.4857 53.1499 95.3772 52.1729C93.9023 51.7099 92.5031 51.0875 91.2737 50.128C89.7711 48.9539 88.9454 47.4378 88.8655 45.5098C88.8217 44.4671 88.6465 43.4333 88.217 42.4688C87.8072 41.5483 87.2191 40.7837 85.7161 40.9063C84.6554 40.9931 83.5918 41.1513 82.5217 40.9307C81.9704 40.8173 81.4472 40.641 81.0647 40.2344C79.9164 39.0134 79.3355 37.5463 79.5803 35.8809C79.8784 33.8512 81.1732 32.737 83.2288 32.7354ZM36.3215 5.87311C38.3834 5.44607 40.2482 5.87267 41.7922 7.40338C42.3875 7.99318 42.7801 8.69184 42.9397 9.49518C43.1274 10.4362 43.2311 11.3932 43.3704 12.3428C43.2734 13.8264 43.064 15.2615 42.5315 16.6387C42.077 17.8159 41.3737 18.7555 40.2239 19.379C38.9083 20.0915 38.5731 21.1147 39.2112 22.4717C39.5726 23.2399 40.0703 23.9588 40.592 24.6339C41.1793 25.3938 41.8626 26.0805 42.5022 26.7999C43.1358 27.5124 43.1783 28.1885 42.5354 28.8799C41.3503 30.155 39.859 30.6525 38.1467 30.378C37.4445 30.2652 36.8998 29.8361 36.6213 29.1612C36.364 28.5371 36.1511 27.8947 35.9329 27.2549C35.7146 26.6151 35.529 25.962 35.303 25.3253C34.8946 24.1748 34.205 23.2524 33.2766 22.4249C30.4021 19.8624 29.0426 16.6199 29.2952 12.7559C29.3624 11.7321 29.709 10.7655 30.3127 9.91998C31.8091 7.82441 33.7832 6.39876 36.3215 5.87311ZM60.0032 0.173889C63.045 -0.398509 65.7367 0.464723 68.0676 2.42877C69.3135 3.47845 69.8903 4.94497 70.1711 6.51862C70.2986 7.23183 70.3342 7.96239 70.3772 8.36139C70.3287 11.1178 69.7635 13.3818 68.344 15.3897C67.834 16.1116 67.5793 16.9339 67.5276 17.8028C67.4517 19.0761 67.4317 20.3521 67.384 21.627C67.3152 23.4683 66.4389 24.3688 64.5891 24.501C63.7765 24.5589 62.9714 24.5201 62.2112 24.1924C61.9266 24.0697 61.6393 23.9304 61.3938 23.7452C60.7477 23.2571 60.6149 22.7091 60.9504 21.963C61.196 21.417 61.5056 20.8985 61.7278 20.3448C62.1142 19.3803 62.4623 18.4003 62.8088 17.421C62.8854 17.2043 62.9035 16.9626 62.9192 16.7296C63.0231 15.2021 62.4924 14.4124 60.9915 14.0909C59.7408 13.8234 58.8049 13.1445 58.0579 12.1661C56.5615 10.2074 55.7884 7.97064 55.5725 5.52936C55.3629 3.15532 57.2732 0.68859 60.0032 0.173889Z" fill="#D55500"/>
</svg>
