<svg width="101" height="39" viewBox="0 0 101 39" fill="none" xmlns="http://www.w3.org/2000/svg">
<g clip-path="url(#clip0_6_114)">
<path d="M20.3215 18.5326C20.322 19.2203 20.2148 19.896 20.0882 20.5692C19.8582 21.7916 19.5269 22.9898 19.225 24.1952C19.1287 24.5799 19.0332 24.9651 19.0297 25.3649C19.025 25.9068 19.1337 26.4308 19.3324 26.93C19.581 27.5544 19.8562 28.1682 20.1261 28.784C20.2701 29.1128 20.3188 29.4486 20.2577 29.8037C20.1868 30.216 20.0145 30.5819 19.7645 30.9118C19.2405 31.604 18.5355 32.0352 17.7151 32.2762C16.6328 32.5942 15.6001 32.4655 14.6349 31.8692C14.3828 31.7132 14.1618 31.5193 13.9813 31.2824C13.814 31.0627 13.7115 30.8213 13.6924 30.5395C13.6577 30.0245 13.6165 29.5095 13.5604 28.9965C13.5042 28.4824 13.4034 27.9764 13.2053 27.4944C13.0852 27.202 12.9165 26.9444 12.6977 26.7146C11.5615 25.5212 10.4813 24.2803 9.53028 22.9319C9.17336 22.4259 8.83339 21.908 8.57633 21.3431C8.46511 21.0987 8.37534 20.8416 8.30504 20.5824C8.21617 20.2549 8.28179 19.9226 8.35534 19.6018C8.43285 19.2634 8.53974 18.9312 8.64808 18.6008C8.78634 18.1788 8.94209 17.7624 9.01978 17.3227C9.13731 16.6565 9.05566 16.0088 8.85178 15.369C8.74813 15.0438 8.64087 14.7165 8.57742 14.3823C8.44546 13.6865 8.62068 13.0739 9.13948 12.5723C9.44827 12.2738 9.79508 12.0273 10.1639 11.811C10.4446 11.6464 10.7337 11.6412 11.0229 11.7959C11.171 11.8752 11.319 11.9549 11.467 12.0349C12.1653 12.4124 12.9353 12.162 13.3302 11.5803C13.4313 11.4312 13.5285 11.2794 13.6284 11.1296C13.8016 10.8701 14.0433 10.735 14.3568 10.7396C14.8394 10.7466 15.3147 10.8028 15.776 10.9535C16.3226 11.132 16.7044 11.4889 16.9355 12.0129C17.0822 12.3457 17.1651 12.6958 17.2163 13.053C17.3567 14.0347 17.776 14.8695 18.5064 15.5455C18.8414 15.8556 19.1783 16.1644 19.5008 16.487C19.6653 16.6518 19.8038 16.8434 19.9482 17.0275C20.2029 17.3523 20.3011 17.7321 20.3204 18.1364C20.3269 18.268 20.3215 18.4003 20.3215 18.5326Z" fill="#7B00FF"/>
<path d="M24.0815 16.3215C23.4353 16.2966 22.6965 16.2209 21.9802 15.9958C21.6402 15.889 21.3177 15.7455 21.0343 15.5244C20.6881 15.2538 20.4979 14.9045 20.4795 14.4601C20.4694 14.2198 20.429 13.9817 20.3301 13.7594C20.2356 13.5473 20.1 13.371 19.7536 13.3993C19.5091 13.4193 19.2642 13.4557 19.0176 13.4048C18.8905 13.3787 18.7699 13.3381 18.6817 13.2444C18.4171 12.963 18.2834 12.625 18.3398 12.2413C18.4085 11.7735 18.7068 11.5168 19.1805 11.5164C19.4179 11.5162 19.6593 11.5543 19.8922 11.6051C20.3023 11.6945 20.7063 11.8124 21.1151 11.9085C21.5674 12.0148 22.0162 12.0184 22.4633 11.8596C22.7342 11.7634 23.0203 11.783 23.3022 11.8115C24.0541 11.8878 24.7746 12.0911 25.4791 12.3572C26.0424 12.5699 26.5864 12.8231 27.0812 13.1692C27.2575 13.2925 27.4189 13.4382 27.5827 13.5786C27.6415 13.6289 27.6905 13.6916 27.7388 13.7528C28.1302 14.2472 28.086 14.7013 27.5964 15.1022C27.2651 15.3733 26.893 15.5833 26.5078 15.7681C25.7727 16.12 25.0023 16.3274 24.0815 16.3215Z" fill="#7B00FF"/>
<path d="M1.36829 22.2081C1.14188 22.1814 0.893657 22.1724 0.655171 22.1194C0.220558 22.0229 0.00856874 21.7363 0.00027668 21.2934C-0.00441014 21.0428 0.0509332 20.8045 0.129347 20.5702C0.244354 20.227 0.403522 19.9039 0.589553 19.5943C1.14476 18.6701 1.8211 17.8477 2.65698 17.1622C2.95675 16.9163 3.28195 16.7218 3.66951 16.6353C3.99939 16.5615 4.27321 16.3692 4.51693 16.1415C4.72747 15.9449 4.92504 15.7343 5.12729 15.5288C5.32107 15.332 5.50728 15.127 5.709 14.9386C5.82653 14.8288 5.95956 14.7304 6.09962 14.6513C6.59084 14.3733 7.12153 14.5536 7.33316 15.0771C7.39932 15.2408 7.42762 15.4241 7.44727 15.6015C7.47755 15.8762 7.35912 16.0955 7.13343 16.2482C6.9748 16.3557 6.80661 16.4501 6.63843 16.5424C6.31252 16.7214 6.22022 16.9038 6.31612 17.2674C6.36624 17.4574 6.43329 17.6494 6.52991 17.8194C6.80986 18.3119 6.77452 18.7944 6.53045 19.282C6.3976 19.5472 6.22545 19.7857 6.02788 20.0051C5.4889 20.6034 4.86952 21.1058 4.17479 21.5106C3.59164 21.8506 2.95423 22.0411 2.28582 22.1237C1.98803 22.1606 1.68825 22.1794 1.36829 22.2081Z" fill="#7B00FF"/>
<path d="M16.2196 5.89939C16.2084 6.53463 16.0781 7.05631 15.7509 7.51904C15.6334 7.68542 15.5748 7.87488 15.5629 8.07515C15.5454 8.36862 15.5407 8.66263 15.5297 8.95646C15.5139 9.38079 15.312 9.58827 14.8856 9.61874C14.6984 9.63207 14.5129 9.62307 14.3377 9.54754C14.272 9.51924 14.2059 9.48715 14.1493 9.44442C14.0004 9.33194 13.9699 9.20576 14.0472 9.03379C14.1038 8.90797 14.1751 8.78845 14.2262 8.66082C14.3153 8.43856 14.3957 8.21288 14.4756 7.98719C14.4932 7.93725 14.4974 7.88155 14.501 7.82783C14.5249 7.47578 14.4025 7.29372 14.0566 7.21963C13.7684 7.15798 13.5528 7.00151 13.3806 6.77601C13.0358 6.32463 12.8577 5.80926 12.8079 5.24666C12.7596 4.69956 13.1997 4.1312 13.8288 4.01258C14.5298 3.88063 15.1501 4.07947 15.6873 4.5321C15.9744 4.77402 16.1075 5.112 16.1722 5.47469C16.2016 5.63909 16.2097 5.80745 16.2196 5.89939Z" fill="#7B00FF"/>
<path d="M9.99578 6.81677C9.97343 7.15873 9.92512 7.48951 9.80236 7.80695C9.69763 8.07825 9.53557 8.29474 9.27059 8.43841C8.96739 8.60263 8.89006 8.83841 9.03715 9.15117C9.12044 9.32818 9.23508 9.49366 9.35532 9.64923C9.49069 9.82444 9.64824 9.98272 9.7957 10.1486C9.94171 10.3128 9.95144 10.4685 9.80327 10.6279C9.53017 10.9217 9.18659 11.0363 8.792 10.9731C8.63012 10.9471 8.50466 10.8482 8.44049 10.6926C8.38118 10.5487 8.33197 10.4007 8.28167 10.2533C8.23138 10.1058 8.18866 9.95549 8.13657 9.80876C8.04247 9.5436 7.88348 9.33107 7.6695 9.14035C7.00704 8.54981 6.69375 7.80245 6.75197 6.91195C6.76747 6.67599 6.84751 6.45337 6.98667 6.2585C7.33151 5.77558 7.78632 5.44714 8.37127 5.326C8.84644 5.22758 9.27618 5.32582 9.63202 5.67859C9.7692 5.81451 9.85969 5.97549 9.89646 6.16062C9.93973 6.37747 9.9637 6.59793 9.99578 6.81677Z" fill="#7B00FF"/>
<path d="M18.3978 33.263C19.4235 32.8616 20.2623 32.2553 20.8672 31.3282C20.9035 31.367 20.9343 31.3921 20.9554 31.4238C21.3426 32.0001 21.5989 32.6301 21.7103 33.3155C21.7538 33.5828 21.7592 33.8539 21.6909 34.1207C21.6166 34.4109 21.4482 34.6263 21.178 34.7588C20.9345 34.8783 20.6823 34.9719 20.4121 35.0128C20.0842 35.0624 19.7895 34.9885 19.542 34.7666C19.4354 34.671 19.3386 34.5614 19.2525 34.447C18.9889 34.0967 18.7324 33.7412 18.4739 33.3874C18.4499 33.3544 18.4312 33.3176 18.3978 33.263Z" fill="#7B00FF"/>
<path d="M33.7285 16.0996C33.4038 16.0996 33.1529 16.0111 32.9758 15.8339C32.7986 15.6494 32.7101 15.3948 32.7101 15.0701V9.22513C32.7101 8.89303 32.7986 8.63842 32.9758 8.4613C33.1603 8.28418 33.4149 8.19562 33.7396 8.19562H36.4628C37.3484 8.19562 38.0311 8.4244 38.5108 8.88196C38.9979 9.33214 39.2414 9.95575 39.2414 10.7528C39.2414 11.5498 38.9979 12.1771 38.5108 12.6347C38.0311 13.0849 37.3484 13.31 36.4628 13.31H34.747V15.0701C34.747 15.3948 34.6621 15.6494 34.4923 15.8339C34.3226 16.0111 34.068 16.0996 33.7285 16.0996ZM34.747 11.7491H36.1086C36.4923 11.7491 36.7875 11.6679 36.9942 11.5056C37.2008 11.3358 37.3041 11.0849 37.3041 10.7528C37.3041 10.4133 37.2008 10.1624 36.9942 10C36.7875 9.83767 36.4923 9.75649 36.1086 9.75649H34.747V11.7491ZM40.1667 16.0996C39.9379 16.0996 39.746 16.048 39.5911 15.9446C39.4361 15.8339 39.3401 15.6863 39.3032 15.5018C39.2663 15.31 39.2995 15.0959 39.4029 14.8598L42.1593 8.92624C42.2921 8.63842 42.4545 8.42809 42.6464 8.29525C42.8456 8.16241 43.0707 8.09599 43.3217 8.09599C43.5726 8.09599 43.7903 8.16241 43.9748 8.29525C44.1667 8.42809 44.3327 8.63842 44.4729 8.92624L47.2294 14.8598C47.3475 15.0959 47.3881 15.31 47.3512 15.5018C47.3216 15.6937 47.2294 15.8413 47.0744 15.9446C46.9268 16.048 46.7423 16.0996 46.5209 16.0996C46.2257 16.0996 45.9969 16.0332 45.8346 15.9004C45.6796 15.7675 45.5394 15.5535 45.4139 15.2583L44.8161 13.8524L45.591 14.417H41.0302L41.8161 13.8524L41.2184 15.2583C41.0855 15.5535 40.949 15.7675 40.8088 15.9004C40.6685 16.0332 40.4545 16.0996 40.1667 16.0996ZM43.2995 10.3211L42.0154 13.3875L41.7054 12.8561H44.9268L44.6169 13.3875L43.3217 10.3211H43.2995Z" fill="#7B00FF"/>
<path d="M40.518 31.1433C40.0722 31.1433 39.7273 31.0159 39.4833 30.7612C39.2392 30.4959 39.1171 30.1298 39.1171 29.6628V26.6543H38.4326C37.9551 26.6543 37.5677 26.7445 37.2706 26.9249C36.9841 27.1053 36.74 27.413 36.5383 27.8481L35.4559 30.2359C35.2967 30.5755 35.0792 30.8196 34.8032 30.9682C34.5273 31.1167 34.2355 31.1751 33.9277 31.1433C33.6306 31.1114 33.3653 31.0053 33.1318 30.8249C32.9089 30.6445 32.7604 30.4057 32.6861 30.1086C32.6224 29.8114 32.6861 29.4665 32.8771 29.0739L33.9436 26.893C34.3045 26.1396 34.7343 25.5665 35.233 25.1738C35.7318 24.7812 36.3526 24.5159 37.0955 24.3779L35.9175 25.1579L33.7367 21.7195C33.5138 21.3799 33.4183 21.0669 33.4502 20.7804C33.4926 20.4832 33.6094 20.2391 33.8004 20.0481C33.9914 19.8465 34.2249 19.7138 34.5008 19.6501C34.7767 19.5865 35.0526 19.613 35.3285 19.7297C35.6045 19.8359 35.8432 20.0534 36.0449 20.3824L38.5282 24.553L38.1143 24.2665H39.1171V21.1146C39.1171 20.6265 39.2392 20.2603 39.4833 20.0163C39.7273 19.7616 40.0722 19.6342 40.518 19.6342C40.9743 19.6342 41.3192 19.7616 41.5527 20.0163C41.7967 20.2603 41.9188 20.6265 41.9188 21.1146V24.2665H42.9216L42.5078 24.553L44.991 20.3824C45.1927 20.0534 45.4315 19.8359 45.7074 19.7297C45.9833 19.613 46.2539 19.5865 46.5192 19.6501C46.7951 19.7138 47.0286 19.8465 47.2196 20.0481C47.4213 20.2391 47.538 20.4832 47.5698 20.7804C47.6123 21.0669 47.5221 21.3799 47.2992 21.7195L45.1184 25.1579L43.9404 24.3779C44.4392 24.4628 44.8743 24.6114 45.2457 24.8236C45.6278 25.0253 45.9674 25.2959 46.2645 25.6355C46.5723 25.9645 46.8482 26.3836 47.0923 26.893L48.1588 29.0739C48.3498 29.4665 48.4082 29.8114 48.3339 30.1086C48.2702 30.4057 48.1217 30.6445 47.8882 30.8249C47.6547 31.0053 47.3894 31.1114 47.0923 31.1433C46.7951 31.1751 46.5086 31.1167 46.2327 30.9682C45.9568 30.8196 45.7392 30.5755 45.58 30.2359L44.4976 27.8481C44.2959 27.413 44.0465 27.1053 43.7494 26.9249C43.4523 26.7445 43.0702 26.6543 42.6033 26.6543H41.9188V29.6628C41.9188 30.1298 41.7967 30.4959 41.5527 30.7612C41.3192 31.0159 40.9743 31.1433 40.518 31.1433ZM51.9528 31.1433C51.7617 31.1433 51.5866 31.1114 51.4274 31.0478C51.2683 30.9841 51.1303 30.8939 51.0136 30.7771C50.9074 30.6498 50.8225 30.4959 50.7589 30.3155C50.7058 30.1351 50.6793 29.9282 50.6793 29.6947V21.0032C50.6793 20.5575 50.796 20.2179 51.0295 19.9844C51.263 19.751 51.6025 19.6342 52.0483 19.6342C52.494 19.6342 52.8283 19.751 53.0511 19.9844C53.2846 20.2179 53.4013 20.5575 53.4013 21.0032V26.7657H52.9556L58.0018 20.462C58.2352 20.1648 58.4528 19.9526 58.6544 19.8252C58.8667 19.6979 59.1532 19.6342 59.514 19.6342C59.7581 19.6342 59.965 19.6873 60.1348 19.7934C60.3152 19.8995 60.4532 20.0534 60.5487 20.255C60.6442 20.4461 60.692 20.6742 60.692 20.9395V29.7584C60.692 30.2147 60.5752 30.5596 60.3418 30.7931C60.1189 31.0265 59.7846 31.1433 59.3389 31.1433C58.8932 31.1433 58.5536 31.0265 58.3201 30.7931C58.0973 30.5596 57.9858 30.2147 57.9858 29.7584V23.9959H58.4156L53.3854 30.3155C53.1519 30.602 52.9344 30.8143 52.7328 30.9522C52.5417 31.0796 52.2817 31.1433 51.9528 31.1433ZM64.8437 31.1433C64.3768 31.1433 64.016 31.0159 63.7613 30.7612C63.5066 30.4959 63.3792 30.1298 63.3792 29.6628V21.2579C63.3792 20.7804 63.5066 20.4142 63.7613 20.1595C64.0266 19.9048 64.3927 19.7775 64.8596 19.7775H68.7756C70.049 19.7775 71.0307 20.1065 71.7205 20.7644C72.4209 21.4118 72.7711 22.3085 72.7711 23.4547C72.7711 24.6008 72.4209 25.5028 71.7205 26.1608C71.0307 26.8081 70.049 27.1318 68.7756 27.1318H66.3082V29.6628C66.3082 30.1298 66.1862 30.4959 65.9421 30.7612C65.698 31.0159 65.3319 31.1433 64.8437 31.1433ZM66.3082 24.8873H68.2662C68.818 24.8873 69.2425 24.7706 69.5397 24.5371C69.8368 24.293 69.9854 23.9322 69.9854 23.4547C69.9854 22.9665 69.8368 22.6057 69.5397 22.3722C69.2425 22.1387 68.818 22.022 68.2662 22.022H66.3082V24.8873ZM74.1017 31.1433C73.7727 31.1433 73.4968 31.069 73.2739 30.9204C73.051 30.7612 72.9131 30.549 72.86 30.2837C72.807 30.0077 72.8547 29.7 73.0033 29.3604L76.967 20.8281C77.158 20.4142 77.3915 20.1118 77.6674 19.9208C77.9539 19.7297 78.2776 19.6342 78.6384 19.6342C78.9992 19.6342 79.3123 19.7297 79.5776 19.9208C79.8535 20.1118 80.0923 20.4142 80.2939 20.8281L84.2576 29.3604C84.4274 29.7 84.4858 30.0077 84.4327 30.2837C84.3903 30.5596 84.2576 30.7718 84.0348 30.9204C83.8225 31.069 83.5572 31.1433 83.2389 31.1433C82.8144 31.1433 82.4854 31.0478 82.2519 30.8567C82.0291 30.6657 81.8274 30.358 81.647 29.9335L80.7874 27.9118L81.9017 28.7237H75.3433L76.4735 27.9118L75.6139 29.9335C75.4229 30.358 75.2266 30.6657 75.0249 30.8567C74.8233 31.0478 74.5155 31.1433 74.1017 31.1433ZM78.6066 22.8338L76.76 27.2432L76.3143 26.4792H80.9466L80.5009 27.2432L78.6384 22.8338H78.6066ZM92.7692 31.589C92.2916 31.589 91.9255 31.4616 91.6708 31.2069C91.4161 30.9522 91.2887 30.5861 91.2887 30.1086V29.4082L91.9892 30.1404H91.5434C90.4185 30.1404 89.4475 29.96 88.6304 29.5992C87.8132 29.2277 87.1818 28.6812 86.7361 27.9596C86.2904 27.2379 86.0675 26.3518 86.0675 25.3012C86.0675 24.5053 86.1895 23.8049 86.4336 23.2C86.6777 22.5951 87.0332 22.091 87.5002 21.6877C87.9777 21.2738 88.5561 20.9661 89.2353 20.7644C89.9145 20.5628 90.6838 20.462 91.5434 20.462H91.9892L91.2887 21.1942V20.5893C91.2887 20.1012 91.4161 19.735 91.6708 19.491C91.9255 19.2363 92.2916 19.1089 92.7692 19.1089C93.2361 19.1089 93.5916 19.2363 93.8357 19.491C94.0904 19.735 94.2177 20.1012 94.2177 20.5893V21.1942L93.5332 20.462H93.963C95.1198 20.462 96.1067 20.6477 96.9239 21.0191C97.741 21.3799 98.3672 21.9212 98.8023 22.6428C99.2374 23.3538 99.4549 24.24 99.4549 25.3012C99.4549 26.0971 99.3276 26.7975 99.0729 27.4024C98.8182 27.9967 98.452 28.5008 97.9745 28.9147C97.4969 29.318 96.9186 29.6257 96.2394 29.838C95.5708 30.0396 94.812 30.1404 93.963 30.1404H93.5332L94.2177 29.4082V30.1086C94.2177 30.5861 94.0957 30.9522 93.8516 31.2069C93.6075 31.4616 93.2467 31.589 92.7692 31.589ZM91.3206 28.4212V22.1812L91.8777 22.611H91.3047C90.9863 22.611 90.6891 22.664 90.4132 22.7702C90.1373 22.8657 89.8932 23.0249 89.681 23.2477C89.4793 23.46 89.3202 23.7359 89.2034 24.0755C89.0867 24.4151 89.0283 24.8236 89.0283 25.3012C89.0283 25.9273 89.1291 26.442 89.3308 26.8453C89.543 27.2379 89.8242 27.5298 90.1745 27.7208C90.5247 27.9012 90.9014 27.9914 91.3047 27.9914H91.8777L91.3206 28.4212ZM94.2018 28.4212L93.6288 27.9914H94.2018C94.5096 27.9914 94.7961 27.9437 95.0614 27.8481C95.3373 27.742 95.5814 27.5775 95.7937 27.3547C96.0165 27.1318 96.1863 26.8506 96.3031 26.511C96.4304 26.1714 96.4941 25.7681 96.4941 25.3012C96.4941 24.6645 96.3933 24.1498 96.1916 23.7571C95.99 23.3644 95.7141 23.0779 95.3639 22.8975C95.0137 22.7065 94.6263 22.611 94.2018 22.611H93.6288L94.2018 22.1812V28.4212Z" fill="#7B00FF"/>
</g>
<defs>
<clipPath id="clip0_6_114">
<rect width="101.002" height="39" rx="8" fill="white"/>
</clipPath>
</defs>
</svg>
