<svg width="20" height="20" viewBox="0 0 20 20" fill="none" xmlns="http://www.w3.org/2000/svg">
<path d="M6.75 11C7.99264 11 9 12.0074 9 13.25V15.75C9 16.9926 7.99264 18 6.75 18H4.25C3.00736 18 2 16.9926 2 15.75V13.25C2 12.0074 3.00736 11 4.25 11H6.75ZM15.75 11C16.9926 11 18 12.0074 18 13.25V15.75C18 16.9926 16.9926 18 15.75 18H13.25C12.0074 18 11 16.9926 11 15.75V13.25C11 12.0074 12.0074 11 13.25 11H15.75ZM6.75 2C7.99264 2 9 3.00736 9 4.25V6.75C9 7.99264 7.99264 9 6.75 9H4.25C3.00736 9 2 7.99264 2 6.75V4.25C2 3.00736 3.00736 2 4.25 2H6.75ZM15.75 2C16.9926 2 18 3.00736 18 4.25V6.75C18 7.99264 16.9926 9 15.75 9H13.25C12.0074 9 11 7.99264 11 6.75V4.25C11 3.00736 12.0074 2 13.25 2H15.75Z" fill="#7B00FF"/>
</svg>
