<svg width="40" height="40" viewBox="0 0 40 40" fill="none" xmlns="http://www.w3.org/2000/svg">
<path fill-rule="evenodd" clip-rule="evenodd" d="M20 6C20.8284 6 21.5 6.67157 21.5 7.5L21.5 28.7758L29.4188 20.4603C29.9929 19.8632 30.9425 19.8446 31.5397 20.4188C32.1368 20.9929 32.1554 21.9425 31.5813 22.5397L21.0813 33.5397C20.7984 33.8338 20.408 34 20 34C19.592 34 19.2016 33.8338 18.9188 33.5397L8.41875 22.5397C7.84456 21.9425 7.86318 20.9929 8.46034 20.4188C9.0575 19.8446 10.0071 19.8632 10.5813 20.4603L18.5 28.7758L18.5 7.5C18.5 6.67157 19.1716 6 20 6Z" fill="white"/>
</svg>
