<svg width="20" height="20" viewBox="0 0 20 20" fill="none" xmlns="http://www.w3.org/2000/svg">
<path d="M2.08362 9.11534C2.08362 8.09519 2.55077 7.1312 3.35147 6.49906L7.9348 2.88064C9.14583 1.92457 10.8547 1.92457 12.0658 2.88064L16.6491 6.49906C17.4498 7.1312 17.917 8.09518 17.917 9.11534V14.5833C17.917 16.4243 16.4246 17.9167 14.5836 17.9167H13.3336C12.8734 17.9167 12.5003 17.5436 12.5003 17.0833V14.5833C12.5003 13.6629 11.7541 12.9167 10.8336 12.9167H9.16695C8.24648 12.9167 7.50028 13.6629 7.50028 14.5833V17.0833C7.50028 17.5436 7.12719 17.9167 6.66695 17.9167H5.41695C3.576 17.9167 2.08362 16.4243 2.08362 14.5833L2.08362 9.11534Z" fill="#7B00FF" stroke="#7B00FF" stroke-width="1.25"/>
</svg>
