<svg width="40" height="40" viewBox="0 0 40 40" fill="none" xmlns="http://www.w3.org/2000/svg">
<path d="M12.5607 10.4393C11.9749 9.85355 11.0251 9.85355 10.4393 10.4393C9.85355 11.0251 9.85355 11.9749 10.4393 12.5607L17.8787 20L10.4393 27.4393C9.85355 28.0251 9.85355 28.9749 10.4393 29.5607C11.0251 30.1464 11.9749 30.1464 12.5607 29.5607L20 22.1213L27.4393 29.5607C28.0251 30.1464 28.9749 30.1464 29.5607 29.5607C30.1464 28.9749 30.1464 28.0251 29.5607 27.4393L22.1213 20L29.5607 12.5607C30.1464 11.9749 30.1464 11.0251 29.5607 10.4393C28.9749 9.85355 28.0251 9.85355 27.4393 10.4393L20 17.8787L12.5607 10.4393Z" fill="#FF6600"/>
</svg>
