<svg width="20" height="20" viewBox="0 0 20 20" fill="none" xmlns="http://www.w3.org/2000/svg">
<path d="M9.95801 1C14.9053 1.00018 18.9158 5.01071 18.916 9.95801C18.916 14.9054 14.9054 18.9168 9.95801 18.917C8.38563 18.917 6.9059 18.5107 5.62012 17.7979C5.54161 17.7544 5.4647 17.7523 5.41016 17.7715L3.30859 18.5146C2.02071 18.9697 0.779568 17.7293 1.23438 16.4414L2.00781 14.252C2.0263 14.1995 2.02552 14.1263 1.98633 14.0498C1.35544 12.8228 1 11.4306 1 9.95801C1.00018 5.01061 5.01057 1 9.95801 1ZM5.83301 8.95801C5.25771 8.95801 4.79102 9.4247 4.79102 10C4.7911 10.5752 5.25777 11.042 5.83301 11.042C6.40825 11.042 6.87491 10.5752 6.875 10C6.875 9.4247 6.4083 8.95801 5.83301 8.95801ZM10 8.95801C9.4247 8.95801 8.95801 9.4247 8.95801 10C8.9581 10.5752 9.42476 11.042 10 11.042C10.5751 11.0418 11.0409 10.5751 11.041 10C11.041 9.42481 10.5751 8.95818 10 8.95801ZM14.166 8.95801C13.5909 8.95818 13.125 9.42481 13.125 10C13.1251 10.5751 13.5909 11.0418 14.166 11.042C14.7413 11.042 15.2079 10.5752 15.208 10C15.208 9.4247 14.7413 8.95801 14.166 8.95801Z" fill="#7B00FF"/>
</svg>
