<svg width="20" height="20" viewBox="0 0 20 20" fill="none" xmlns="http://www.w3.org/2000/svg">
<path d="M10 1C13.866 1 17 4.13401 17 8C17 11.4923 15.3021 13.9872 13.6455 15.584C12.8175 16.3821 11.9916 16.9656 11.3721 17.3496C11.0616 17.542 10.8007 17.6855 10.6152 17.7822C10.5225 17.8306 10.448 17.8673 10.3955 17.8926C10.3695 17.9051 10.3489 17.9149 10.334 17.9219L10.3154 17.9307L10.3096 17.9326L10.3076 17.9336C10.1098 18.0196 10 18 10 18C10 18 9.89015 18.0201 9.69336 17.9346L9.69043 17.9326L9.68457 17.9307L9.66602 17.9219C9.65106 17.9149 9.63047 17.9051 9.60449 17.8926C9.55204 17.8673 9.4775 17.8306 9.38477 17.7822C9.19932 17.6855 8.93837 17.542 8.62793 17.3496C8.00838 16.9656 7.18251 16.3821 6.35449 15.584C4.69788 13.9872 3 11.4923 3 8C3 4.13401 6.13401 1 10 1ZM10 5.75C8.75736 5.75 7.75 6.75736 7.75 8C7.75 9.24264 8.75736 10.25 10 10.25C11.2426 10.25 12.25 9.24264 12.25 8C12.25 6.75736 11.2426 5.75 10 5.75Z" fill="#7B00FF"/>
</svg>
