<svg xmlns="http://www.w3.org/2000/svg" style="display:none">
<symbol id="case" viewBox="0 0 20 20">
<path fill-rule="evenodd" clip-rule="evenodd" d="M6 3.75C6 2.23122 7.23122 1 8.75 1H11.25C12.7688 1 14 2.23122 14 3.75V4.19269C14.572 4.24808 15.1407 4.31524 15.7057 4.39392C17.0526 4.58149 18 5.74901 18 7.07023V10.5386C18 11.6653 17.3058 12.7301 16.1705 13.0786C14.2185 13.6778 12.1462 14 10 14C7.8538 14 5.78149 13.6778 3.82951 13.0786C2.69423 12.7301 2 11.6653 2 10.5386V7.07023C2 5.74901 2.94737 4.58149 4.29435 4.39392C4.85933 4.31524 5.42796 4.24808 6 4.19269V3.75ZM12.5 3.75V4.07499C11.673 4.02523 10.8394 4 10 4C9.16061 4 8.32704 4.02523 7.5 4.07499V3.75C7.5 3.05964 8.05964 2.5 8.75 2.5H11.25C11.9404 2.5 12.5 3.05964 12.5 3.75ZM10 10C9.44772 10 9 10.4477 9 11V11.01C9 11.5623 9.44772 12.01 10 12.01H10.01C10.5623 12.01 11.01 11.5623 11.01 11.01V11C11.01 10.4477 10.5623 10 10.01 10H10Z" fill="currentColor"/>
<path d="M3 15.0552V14.3714C3.1256 14.4243 3.25542 14.4715 3.38933 14.5126C5.48234 15.1551 7.70295 15.5 10 15.5C12.297 15.5 14.5177 15.1551 16.6107 14.5126C16.7446 14.4715 16.8744 14.4243 17 14.3714V15.0552C17 16.4024 16.0154 17.5854 14.6369 17.7406C13.1147 17.9119 11.5675 17.9999 10 17.9999C8.43253 17.9999 6.88533 17.9119 5.36311 17.7406C3.98461 17.5854 3 16.4024 3 15.0552Z" fill="currentColor"/>

</symbol>
<symbol id="catalog" viewBox="0 0 20 20">
<path d="M6.75 11C7.99264 11 9 12.0074 9 13.25V15.75C9 16.9926 7.99264 18 6.75 18H4.25C3.00736 18 2 16.9926 2 15.75V13.25C2 12.0074 3.00736 11 4.25 11H6.75ZM15.75 11C16.9926 11 18 12.0074 18 13.25V15.75C18 16.9926 16.9926 18 15.75 18H13.25C12.0074 18 11 16.9926 11 15.75V13.25C11 12.0074 12.0074 11 13.25 11H15.75ZM6.75 2C7.99264 2 9 3.00736 9 4.25V6.75C9 7.99264 7.99264 9 6.75 9H4.25C3.00736 9 2 7.99264 2 6.75V4.25C2 3.00736 3.00736 2 4.25 2H6.75ZM15.75 2C16.9926 2 18 3.00736 18 4.25V6.75C18 7.99264 16.9926 9 15.75 9H13.25C12.0074 9 11 7.99264 11 6.75V4.25C11 3.00736 12.0074 2 13.25 2H15.75Z" fill="currentColor"/>

</symbol>
<symbol id="down" viewBox="0 0 40 40">
<path fill-rule="evenodd" clip-rule="evenodd" d="M20 6C20.8284 6 21.5 6.67157 21.5 7.5L21.5 28.7758L29.4188 20.4603C29.9929 19.8632 30.9425 19.8446 31.5397 20.4188C32.1368 20.9929 32.1554 21.9425 31.5813 22.5397L21.0813 33.5397C20.7984 33.8338 20.408 34 20 34C19.592 34 19.2016 33.8338 18.9188 33.5397L8.41875 22.5397C7.84456 21.9425 7.86318 20.9929 8.46034 20.4188C9.0575 19.8446 10.0071 19.8632 10.5813 20.4603L18.5 28.7758L18.5 7.5C18.5 6.67157 19.1716 6 20 6Z" fill="white"/>

</symbol>
<symbol id="error" viewBox="0 0 20 20">
<path fill-rule="evenodd" clip-rule="evenodd" d="M18 10C18 14.4183 14.4183 18 10 18C5.58172 18 2 14.4183 2 10C2 5.58172 5.58172 2 10 2C14.4183 2 18 5.58172 18 10ZM10 5C10.4142 5 10.75 5.33579 10.75 5.75V10.25C10.75 10.6642 10.4142 11 10 11C9.58579 11 9.25 10.6642 9.25 10.25V5.75C9.25 5.33579 9.58579 5 10 5ZM10 15C10.5523 15 11 14.5523 11 14C11 13.4477 10.5523 13 10 13C9.44771 13 9 13.4477 9 14C9 14.5523 9.44771 15 10 15Z" fill="currentColor"/>

</symbol>
<symbol id="home" viewBox="0 0 20 20">
<path d="M2.08362 9.11534C2.08362 8.09519 2.55077 7.1312 3.35147 6.49906L7.9348 2.88064C9.14583 1.92457 10.8547 1.92457 12.0658 2.88064L16.6491 6.49906C17.4498 7.1312 17.917 8.09518 17.917 9.11534V14.5833C17.917 16.4243 16.4246 17.9167 14.5836 17.9167H13.3336C12.8734 17.9167 12.5003 17.5436 12.5003 17.0833V14.5833C12.5003 13.6629 11.7541 12.9167 10.8336 12.9167H9.16695C8.24648 12.9167 7.50028 13.6629 7.50028 14.5833V17.0833C7.50028 17.5436 7.12719 17.9167 6.66695 17.9167H5.41695C3.576 17.9167 2.08362 16.4243 2.08362 14.5833L2.08362 9.11534Z" fill="currentColor" stroke="currentColor" stroke-width="1.25"/>

</symbol>
<symbol id="info" viewBox="0 0 20 20">
<path d="M10 2C14.4183 2 18 5.58172 18 10C18 14.4183 14.4183 18 10 18C5.58172 18 2 14.4183 2 10C2 5.58172 5.58172 2 10 2ZM9 9C8.58579 9 8.25 9.33579 8.25 9.75C8.25 10.1642 8.58579 10.5 9 10.5H9.25293C9.41287 10.5 9.53176 10.6486 9.49707 10.8047L9.03809 12.8701C8.79522 13.963 9.62751 15 10.7471 15H11C11.4142 15 11.75 14.6642 11.75 14.25C11.75 13.8358 11.4142 13.5 11 13.5H10.7471C10.5871 13.5 10.4682 13.3514 10.5029 13.1953L10.9619 11.1299C11.2048 10.037 10.3725 9 9.25293 9H9ZM10 5C9.44771 5 9 5.44772 9 6C9 6.55228 9.44771 7 10 7C10.5523 7 11 6.55228 11 6C11 5.44772 10.5523 5 10 5Z" fill="currentColor"/>

</symbol>
<symbol id="like" viewBox="0 0 20 20">
<path d="M1 9.25C1 8.55964 1.55964 8 2.25 8C2.94036 8 3.5 8.55964 3.5 9.25V16.75C3.5 17.4404 2.94036 18 2.25 18C1.55964 18 1 17.4404 1 16.75V9.25Z" fill="currentColor"/>
<path d="M11 4V2.70016C11 2.43243 11.1397 2.17406 11.3949 2.09316C11.5858 2.03264 11.7891 2 12 2C13.1046 2 14 2.89543 14 4C14 4.99504 13.8183 5.94764 13.4864 6.82646C13.2823 7.36683 13.6524 8 14.23 8H16.75C17.9926 8 19.0111 9.00957 18.8962 10.2469C18.7031 12.3266 18.2447 14.3294 17.555 16.2209C17.1534 17.3225 16.0723 18 14.8998 18H11.7082C11.2425 18 10.7831 17.8916 10.3666 17.6833L7.63344 16.3167C7.21687 16.1084 6.75753 16 6.2918 16H5V9H5.9632C6.64763 9 7.22105 8.51748 7.57541 7.93193C8.06387 7.1248 8.82963 6.50423 9.74061 6.20229C10.1734 6.05884 10.5942 5.81595 10.7525 5.38836C10.9126 4.95587 11 4.48815 11 4Z" fill="currentColor"/>

</symbol>
<symbol id="menu-bars" viewBox="0 0 40 40">
<path fill-rule="evenodd" clip-rule="evenodd" d="M4 13.5C4 12.6716 4.67157 12 5.5 12H34.5C35.3284 12 36 12.6716 36 13.5C36 14.3284 35.3284 15 34.5 15H5.5C4.67157 15 4 14.3284 4 13.5ZM4 26.5C4 25.6716 4.67157 25 5.5 25H34.5C35.3284 25 36 25.6716 36 26.5C36 27.3284 35.3284 28 34.5 28H5.5C4.67157 28 4 27.3284 4 26.5Z" fill="currentColor"/>

</symbol>
<symbol id="menu-x" viewBox="0 0 40 40">
<path d="M12.5607 10.4393C11.9749 9.85355 11.0251 9.85355 10.4393 10.4393C9.85355 11.0251 9.85355 11.9749 10.4393 12.5607L17.8787 20L10.4393 27.4393C9.85355 28.0251 9.85355 28.9749 10.4393 29.5607C11.0251 30.1464 11.9749 30.1464 12.5607 29.5607L20 22.1213L27.4393 29.5607C28.0251 30.1464 28.9749 30.1464 29.5607 29.5607C30.1464 28.9749 30.1464 28.0251 29.5607 27.4393L22.1213 20L29.5607 12.5607C30.1464 11.9749 30.1464 11.0251 29.5607 10.4393C28.9749 9.85355 28.0251 9.85355 27.4393 10.4393L20 17.8787L12.5607 10.4393Z" fill="currentColor"/>

</symbol>
<symbol id="message" viewBox="0 0 20 20">
<path d="M9.95801 1C14.9053 1.00018 18.9158 5.01071 18.916 9.95801C18.916 14.9054 14.9054 18.9168 9.95801 18.917C8.38563 18.917 6.9059 18.5107 5.62012 17.7979C5.54161 17.7544 5.4647 17.7523 5.41016 17.7715L3.30859 18.5146C2.02071 18.9697 0.779568 17.7293 1.23438 16.4414L2.00781 14.252C2.0263 14.1995 2.02552 14.1263 1.98633 14.0498C1.35544 12.8228 1 11.4306 1 9.95801C1.00018 5.01061 5.01057 1 9.95801 1ZM5.83301 8.95801C5.25771 8.95801 4.79102 9.4247 4.79102 10C4.7911 10.5752 5.25777 11.042 5.83301 11.042C6.40825 11.042 6.87491 10.5752 6.875 10C6.875 9.4247 6.4083 8.95801 5.83301 8.95801ZM10 8.95801C9.4247 8.95801 8.95801 9.4247 8.95801 10C8.9581 10.5752 9.42476 11.042 10 11.042C10.5751 11.0418 11.0409 10.5751 11.041 10C11.041 9.42481 10.5751 8.95818 10 8.95801ZM14.166 8.95801C13.5909 8.95818 13.125 9.42481 13.125 10C13.1251 10.5751 13.5909 11.0418 14.166 11.042C14.7413 11.042 15.2079 10.5752 15.208 10C15.208 9.4247 14.7413 8.95801 14.166 8.95801Z" fill="currentColor"/>

</symbol>
<symbol id="point" viewBox="0 0 20 20">
<path d="M10 1C13.866 1 17 4.13401 17 8C17 11.4923 15.3021 13.9872 13.6455 15.584C12.8175 16.3821 11.9916 16.9656 11.3721 17.3496C11.0616 17.542 10.8007 17.6855 10.6152 17.7822C10.5225 17.8306 10.448 17.8673 10.3955 17.8926C10.3695 17.9051 10.3489 17.9149 10.334 17.9219L10.3154 17.9307L10.3096 17.9326L10.3076 17.9336C10.1098 18.0196 10 18 10 18C10 18 9.89015 18.0201 9.69336 17.9346L9.69043 17.9326L9.68457 17.9307L9.66602 17.9219C9.65106 17.9149 9.63047 17.9051 9.60449 17.8926C9.55204 17.8673 9.4775 17.8306 9.38477 17.7822C9.19932 17.6855 8.93837 17.542 8.62793 17.3496C8.00838 16.9656 7.18251 16.3821 6.35449 15.584C4.69788 13.9872 3 11.4923 3 8C3 4.13401 6.13401 1 10 1ZM10 5.75C8.75736 5.75 7.75 6.75736 7.75 8C7.75 9.24264 8.75736 10.25 10 10.25C11.2426 10.25 12.25 9.24264 12.25 8C12.25 6.75736 11.2426 5.75 10 5.75Z" fill="currentColor"/>

</symbol>
<symbol id="speed" viewBox="0 0 20 20">
<path d="M11.9834 1.90718C12.0546 1.57461 11.8932 1.23571 11.59 1.08152C11.2868 0.927338 10.9179 0.996463 10.6911 1.24994L2.19108 10.7499C1.99385 10.9704 1.9446 11.2861 2.06533 11.5562C2.18607 11.8262 2.45423 12 2.75001 12H9.32227L8.01666 18.0929C7.9454 18.4255 8.10685 18.7644 8.41002 18.9185C8.71318 19.0727 9.08215 19.0036 9.30894 18.7501L17.8089 9.25013C18.0062 9.0297 18.0554 8.71393 17.9347 8.4439C17.814 8.17388 17.5458 8.00003 17.25 8.00003H10.6778L11.9834 1.90718Z" fill="currentColor"/>

</symbol>
<symbol id="vk" viewBox="0 0 20 20">
<path d="M2.26 2.26C1 3.532 1 5.566 1 9.64V10.36C1 14.428 1 16.462 2.26 17.74C3.532 19 5.566 19 9.64 19H10.36C14.428 19 16.462 19 17.74 17.74C19 16.468 19 14.434 19 10.36V9.64C19 5.572 19 3.538 17.74 2.26C16.468 1 14.434 1 10.36 1H9.64C5.572 1 3.538 1 2.26 2.26ZM4.036 6.478H6.1C6.166 9.91 7.678 11.362 8.878 11.662V6.478H10.816V9.436C11.998 9.31 13.246 7.96 13.666 6.472H15.598C15.4404 7.24222 15.1256 7.97167 14.6735 8.61481C14.2213 9.25796 13.6414 9.80099 12.97 10.21C13.7194 10.5829 14.3813 11.1104 14.9118 11.7579C15.4424 12.4053 15.8297 13.1579 16.048 13.966H13.918C13.462 12.544 12.322 11.44 10.816 11.29V13.966H10.576C6.472 13.966 4.132 11.158 4.036 6.478Z" fill="currentColor"/>

</symbol>
</svg>

