<svg width="20" height="20" viewBox="0 0 20 20" fill="none" xmlns="http://www.w3.org/2000/svg">
<path d="M2.26 2.26C1 3.532 1 5.566 1 9.64V10.36C1 14.428 1 16.462 2.26 17.74C3.532 19 5.566 19 9.64 19H10.36C14.428 19 16.462 19 17.74 17.74C19 16.468 19 14.434 19 10.36V9.64C19 5.572 19 3.538 17.74 2.26C16.468 1 14.434 1 10.36 1H9.64C5.572 1 3.538 1 2.26 2.26ZM4.036 6.478H6.1C6.166 9.91 7.678 11.362 8.878 11.662V6.478H10.816V9.436C11.998 9.31 13.246 7.96 13.666 6.472H15.598C15.4404 7.24222 15.1256 7.97167 14.6735 8.61481C14.2213 9.25796 13.6414 9.80099 12.97 10.21C13.7194 10.5829 14.3813 11.1104 14.9118 11.7579C15.4424 12.4053 15.8297 13.1579 16.048 13.966H13.918C13.462 12.544 12.322 11.44 10.816 11.29V13.966H10.576C6.472 13.966 4.132 11.158 4.036 6.478Z" fill="#7B00FF"/>
</svg>
